<svg width="202" height="48" viewBox="0 0 202 48" fill="none" xmlns="http://www.w3.org/2000/svg">
<rect width="48" height="48" rx="10" fill="#F3F9FB"/>
<path d="M9.80487 10.8182H16.6316L23.8418 28.4091H24.1486L31.3588 10.8182H38.1855V37H32.8162V19.9588H32.5989L25.8233 36.8722H22.1671L15.3915 19.8949H15.1742V37H9.80487V10.8182Z" fill="#008ECC"/>
<path d="M80.4121 10.1183L74.7761 24.9757L69.1401 10.1183H64V31.0074H67.6672V15.4108L72.9275 29.189H76.6247L81.885 15.4108V31.0074H85.5522V10.1183H80.4121Z" fill="#008ECC"/>
<path d="M96.6589 31.3031C99.1838 31.3031 101.183 30.4308 102.821 28.642L100.296 26.4688C99.244 27.622 98.0416 28.0359 96.689 28.0359C94.3293 28.0359 93.2472 26.735 92.9316 24.7983H103.242C103.317 24.5913 103.377 23.9852 103.377 23.3791C103.377 20.0824 101.679 15.9282 96.4184 15.9282C91.3385 15.9282 89.054 19.831 89.054 23.6748C89.054 27.6515 91.4888 31.3031 96.6589 31.3031ZM92.9316 22.1964C93.2773 20.3485 94.2241 18.9588 96.3884 18.9588C97.9815 18.9588 99.274 19.7423 99.6497 21.265C99.7399 21.5607 99.77 21.8712 99.77 22.1964H92.9316Z" fill="#008ECC"/>
<path d="M113.357 28.7012C110.681 28.3759 108.833 28.3464 108.833 27.1341C108.833 26.7941 108.968 26.5428 109.269 26.3506C110.125 26.7202 111.087 26.9271 112.124 26.9271C115.416 26.9271 118.226 24.8279 118.226 21.5312C118.226 20.5702 118.001 19.698 117.58 18.9588L119.759 17.2291L117.85 14.9377L115.551 16.8743C114.544 16.2682 113.311 15.9282 112.004 15.9282C108.682 15.9282 105.842 18.1457 105.842 21.3537C105.842 22.6547 106.308 23.8226 107.089 24.754C106.203 25.5227 105.692 26.4688 105.692 27.7698C105.692 29.189 106.293 30.076 107.164 30.6526L105.421 32.1014C105.391 32.2492 105.361 32.397 105.361 32.7371C105.361 35.7677 107.826 38 112.56 38C116.287 38 119.203 36.4034 119.203 33.0623C119.203 29.6769 116.197 29.0707 113.357 28.7012ZM112.124 18.7223C113.732 18.7223 114.589 19.831 114.589 21.3833C114.589 22.8912 113.762 23.9852 112.124 23.9852C110.501 23.9852 109.629 22.8912 109.629 21.3833C109.629 19.831 110.531 18.7223 112.124 18.7223ZM112.53 35.2207C110.711 35.2207 109.148 34.7033 108.712 33.2249L108.622 32.8258L109.434 31.4952C110.351 31.6726 111.283 31.7466 112.064 31.8205C114.559 32.0718 115.731 32.3379 115.731 33.4615C115.731 34.6441 114.469 35.2207 112.53 35.2207Z" fill="#008ECC"/>
<path d="M127.665 15.9282C124.704 15.9282 122.795 17.2291 121.352 19.1658L124.163 21.1616C124.809 20.0824 125.966 19.0771 127.695 19.0771C130.084 19.0771 130.746 20.0084 130.821 22.1964H126.748C123.381 22.1964 120.766 23.2608 120.766 26.4688C120.766 29.5586 123.141 31.3031 126.222 31.3031C127.935 31.3031 129.934 30.5639 130.911 29.0412L131.136 31.0074H134.157V22.0486C134.157 18.4414 131.753 15.9282 127.665 15.9282ZM126.958 28.2577C125.32 28.2577 124.523 27.5628 124.523 26.5871C124.523 25.6558 125.29 24.7983 126.958 24.7983H130.836V24.9166C130.61 26.661 129.213 28.2577 126.958 28.2577Z" fill="#008ECC"/>
<path d="M155.048 10.1183L149.412 24.9757L143.776 10.1183H138.636V31.0074H142.303V15.4108L147.563 29.189H151.261L156.521 15.4108V31.0074H160.188V10.1183H155.048Z" fill="#008ECC"/>
<path d="M170.589 15.9282C167.628 15.9282 165.719 17.2291 164.276 19.1658L167.087 21.1616C167.733 20.0824 168.89 19.0771 170.619 19.0771C173.008 19.0771 173.67 20.0084 173.745 22.1964H169.672C166.305 22.1964 163.69 23.2608 163.69 26.4688C163.69 29.5586 166.065 31.3031 169.146 31.3031C170.859 31.3031 172.858 30.5639 173.835 29.0412L174.06 31.0074H177.081V22.0486C177.081 18.4414 174.677 15.9282 170.589 15.9282ZM169.882 28.2577C168.244 28.2577 167.447 27.5628 167.447 26.5871C167.447 25.6558 168.214 24.7983 169.882 24.7983H173.76V24.9166C173.534 26.661 172.137 28.2577 169.882 28.2577Z" fill="#008ECC"/>
<path d="M181.004 31.0074H184.551V24.7687C184.551 21.0137 186.339 19.4467 188.053 19.4467C188.639 19.4467 189.195 19.6241 189.691 19.9493L191.359 16.9926C190.638 16.2682 189.601 15.9282 188.609 15.9282C186.926 15.9282 185.227 16.9335 184.581 18.7223V16.2386H181.004V31.0074Z" fill="#008ECC"/>
<path d="M199.265 31.3031C200.362 31.3031 201.444 31.0665 202 30.8596V27.5924C201.504 27.8289 200.677 28.1246 199.911 28.1246C198.949 28.1246 198.243 27.7107 198.243 26.2914V19.2545H202V16.2386H198.243V10L194.636 12.5723V16.2386H192.156V19.2545H194.575V26.9271C194.575 29.6177 196.334 31.3031 199.265 31.3031Z" fill="#008ECC"/>
</svg>
